HIERARCHY
ROOT Hips
{
  OFFSET 0 0 0
  CHANNELS 6 Xposition Yposition Zposition Zrotation Yrotation Xrotation
  JOINT LeftThigh
  {
    OFFSET 8.409438 0 -5.917753
    CHANNELS 3 Zrotation Yrotation Xrotation
    JOINT LeftLeg
    {
      OFFSET 0 0 -42.358652
      CHANNELS 3 Zrotation Yrotation Xrotation
      JOINT LeftFoot
      {
        OFFSET 0 0 -39.357303
        CHANNELS 3 Zrotation Yrotation Xrotation
      }
    }
  }
  JOINT RightThigh
  {
    OFFSET -8.409438 0 -5.917753
    CHANNELS 3 Zrotation Yrotation Xrotation
    JOINT RightLeg
    {
      OFFSET 0 0 -42.358652
      CHANNELS 3 Zrotation Yrotation Xrotation
      JOINT RightFoot
      {
        OFFSET 0 0 -39.357303
        CHANNELS 3 Zrotation Yrotation Xrotation
      }
    }
  }
  JOINT SpineLow
  {
    OFFSET 0 0 4.719101
    CHANNELS 3 Zrotation Yrotation Xrotation
    JOINT SpineMid
    {
      OFFSET 0 0 12.899191
      CHANNELS 3 Zrotation Yrotation Xrotation
      JOINT Chest
      {
        OFFSET 0 0 12.899191
        CHANNELS 3 Zrotation Yrotation Xrotation
        JOINT LeftShoulder
        {
          OFFSET 7.550562 1.41573 9.438202
          CHANNELS 3 Zrotation Yrotation Xrotation
          JOINT LeftArm
          {
            OFFSET 9.155056 0 4.247191
            CHANNELS 3 Zrotation Yrotation Xrotation
            JOINT LeftForearm
            {
              OFFSET 0 0 25.771955
              CHANNELS 3 Zrotation Yrotation Xrotation
              JOINT LeftHand
              {
                OFFSET 0 0 25.197169
                CHANNELS 3 Zrotation Yrotation Xrotation
              }
            }
          }
        }
        JOINT RightShoulder
        {
          OFFSET -7.550562 1.41573 9.438202
          CHANNELS 3 Zrotation Yrotation Xrotation
          JOINT RightArm
          {
            OFFSET -9.155056 0 4.247191
            CHANNELS 3 Zrotation Yrotation Xrotation
            JOINT RightForearm
            {
              OFFSET 0 0 -25.771955
              CHANNELS 3 Zrotation Yrotation Xrotation
              JOINT RightHand
              {
                OFFSET 0 0 -25.197169
                CHANNELS 3 Zrotation Yrotation Xrotation
              }
            }
          }
        }
        JOINT Neck
        {
          OFFSET 0 0 15.101124
          CHANNELS 3 Zrotation Yrotation Xrotation
          JOINT Head
          {
            OFFSET 0 0 11.325843
            CHANNELS 3 Zrotation Yrotation Xrotation
            End Site
            {
              OFFSET 0 0 14.157303
            }
          }
        }
      }
    }
  }
}
MOTION
Frames: 13
Frame Time: 0.0
0.0  101.685394  0.0  1.146378  24.572774  -96.960701  9.750109  -26.558358  8.203689  9.26597  7.94633  52.92305  2.356734  3.795588  -6.103942  -17.743476  3.269251  -43.139687  6.265335  9.481225  58.929679  7.68381  5.101786  3.804343  -3.308848  0.309504  2.540129  -9.001314  1.189941  6.886623  -9.001315  1.189941  6.886622  -0.788969  23.450634  9.894495  156.834303  27.403535  -164.341015  -43.411149  -14.633265  102.436324  78.369358  -5.792888  4.974703  15.777041  -5.288109  19.071767  10.041887  73.473424  -43.723749  -22.238677  -0.078483  -84.46441  67.59684  1.850342  20.928827  -1.678134  0.062566  -2.551952  -1.258365  0.053934  -1.913809  
0.0  101.685394  0.0  1.291292  24.311643  -97.043453  9.753872  -26.276377  8.246908  9.305446  7.879192  52.902599  2.379077  3.829145  -5.973273  -18.066002  3.231251  -43.063429  6.752821  9.117574  58.739968  7.534196  5.014394  3.805613  -3.222753  0.375826  2.577345  -8.758661  1.366634  6.981402  -8.758661  1.366634  6.981402  -1.010897  23.197277  9.770272  157.032295  27.568033  -164.442387  -43.502203  -14.262114  102.616181  78.310986  -5.846693  4.869318  15.518475  -5.456076  18.856497  10.973968  73.026869  -43.077958  -21.968293  -0.368977  -84.485136  67.392793  1.93648  20.855945  -2.115086  -0.132672  -2.714784  -1.58694  -0.090112  -2.036576  
0.0  101.685394  0.0  1.39779  24.153034  -97.140323  9.642363  -26.054373  8.252877  9.58011  7.791893  53.142674  2.419663  3.840392  -5.866899  -18.416614  3.207714  -42.972635  6.992983  9.016012  58.44122  7.686143  4.894659  3.886918  -3.161581  0.436192  2.597402  -8.58496  1.52729  7.029954  -8.58496  1.52729  7.029954  -1.07728  22.976484  9.793566  157.24707  27.819426  -164.505321  -43.563906  -13.950935  102.800915  78.288153  -5.878574  4.665141  15.316451  -5.611284  18.772015  11.960914  72.563265  -42.320366  -21.701217  -0.707361  -84.611099  67.355028  1.959572  20.88886  -2.350461  -0.267627  -2.744617  -1.764087  -0.190172  -2.059524  
0.0  101.685394  0.0  1.40961  23.963218  -97.296592  9.762016  -25.981484  8.341377  9.555133  7.811101  53.160662  2.328343  3.783136  -5.846172  -18.605976  3.220253  -42.835522  7.149885  8.747195  58.251695  7.794504  4.736566  3.919037  -3.12196  0.480801  2.609377  -8.471878  1.646186  7.058118  -8.471878  1.646186  7.058118  -1.160754  22.800462  9.861651  157.690809  28.163238  -164.440991  -43.647871  -13.760169  102.933367  78.344164  -5.896394  4.32734  15.092537  -5.770787  18.699075  13.527024  72.188155  -41.070337  -21.722416  -0.578578  -84.533662  67.057131  2.073081  20.616857  -2.643135  -0.343138  -2.726476  -1.983923  -0.245573  -2.046379  
0.0  101.685394  0.0  1.373923  23.891622  -97.433241  9.944929  -25.986265  8.337951  9.401462  7.806881  53.145454  2.151212  3.777707  -5.871905  -18.786988  3.302101  -42.729522  7.054637  8.63953  58.000407  7.99694  4.548181  3.991012  -3.089271  0.506145  2.613011  -8.379916  1.712242  7.06584  -8.379917  1.712242  7.06584  -1.189153  22.715259  10.00974  158.046693  28.681158  -164.287884  -43.748469  -13.654088  103.005957  78.554253  -5.97655  3.865592  14.953804  -5.850053  18.735105  14.643667  71.796379  -40.099012  -21.595486  -0.583969  -84.644096  67.021229  2.08874  20.680533  -2.836035  -0.383912  -2.667997  -2.128743  -0.275567  -2.002823  
0.0  101.685394  0.0  1.238874  23.59147  -97.694657  10.686898  -26.211334  8.442963  8.945357  7.851278  53.016078  1.812727  3.724073  -6.059075  -18.638936  3.393668  -42.514913  6.848672  8.439868  57.802441  8.124981  4.398408  4.033324  -3.011948  0.542781  2.641078  -8.164169  1.807328  7.140319  -8.164169  1.807328  7.140319  -1.3501  22.43662  10.081688  158.510874  29.302916  -164.034243  -43.837408  -13.515454  102.979094  78.908819  -6.070757  3.292037  14.52224  -6.113406  18.565345  16.199577  72.183242  -38.151889  -21.932253  -1.237008  -85.135746  66.934252  2.130714  20.690934  -3.119518  -0.511319  -2.643339  -2.341886  -0.370016  -1.985162  
0.0  101.685394  0.0  1.129688  23.461976  -97.848535  11.451062  -26.462478  8.402947  8.291713  7.946278  52.716677  1.474502  3.712306  -6.192697  -18.520582  3.569278  -42.385211  6.472585  8.352032  57.563923  8.308892  4.231288  4.09141  -2.948733  0.559249  2.640042  -7.989886  1.845315  7.137504  -7.989885  1.845315  7.137503  -1.469765  22.240003  10.291166  158.923003  30.032124  -163.654294  -43.942344  -13.413843  102.976411  79.247113  -6.057395  2.683408  14.23887  -6.272599  18.616735  17.567223  71.901324  -36.865343  -21.910594  -1.170014  -85.324186  66.88944  2.160817  20.753502  -3.402007  -0.587123  -2.586611  -2.554022  -0.425968  -1.943281  
0.0  101.685394  0.0  0.954166  23.149902  -98.041568  12.529567  -26.772805  8.375892  7.439799  8.054709  52.233946  1.129227  3.672741  -6.349543  -18.253567  3.680404  -42.247915  6.09462  8.153894  57.384888  8.49538  4.124744  4.134747  -2.865336  0.57931  2.648308  -7.75983  1.89203  7.160389  -7.75983  1.89203  7.160389  -1.962033  21.924401  10.386533  159.873857  30.802557  -163.003272  -44.010401  -13.396117  102.996207  79.622267  -5.911359  2.069098  13.814339  -6.521151  18.523554  20.951558  72.336839  -33.494351  -22.644156  -1.460051  -85.672784  66.763169  2.210026  20.775132  -3.716631  -0.722831  -2.57275  -2.790538  -0.526512  -1.934018  
0.0  101.685394  0.0  0.885686  23.012313  -98.095372  13.398373  -26.99017  8.337531  6.670353  8.238119  51.7665  0.722606  3.573729  -6.568733  -18.008581  3.870008  -42.169029  5.676985  8.113218  57.146694  8.655955  3.962674  4.17744  -2.800017  0.591085  2.651306  -7.580156  1.917451  7.169346  -7.580155  1.917451  7.169346  -2.247617  21.753151  10.49665  160.671914  31.814057  -162.173017  -43.914448  -13.561329  102.950886  79.993485  -5.659168  1.342491  13.469616  -6.632985  18.438133  22.736453  72.048188  -31.791688  -22.584765  -1.444475  -86.002627  66.622597  2.226799  20.818218  -4.005329  -0.808763  -2.629173  -3.007492  -0.589384  -1.977249  
0.0  101.685394  0.0  0.780776  22.804557  -98.121529  14.071436  -27.142814  8.237821  6.026389  8.39965  51.302671  0.418305  3.552281  -6.701022  -17.756923  3.958469  -42.13213  5.30453  8.046921  56.944753  8.863389  3.835909  4.204709  -2.788901  0.637744  2.642981  -7.545234  2.042494  7.141845  -7.545235  2.042494  7.141845  -2.283745  21.380929  10.590715  161.905487  32.996902  -161.044597  -43.64008  -14.004638  102.753281  80.367014  -5.348605  0.443285  13.43405  -6.943054  18.289325  24.994673  71.727652  -29.700177  -22.464377  -1.462969  -86.388951  66.433514  2.211438  20.878174  -4.207539  -0.988762  -2.697326  -3.160013  -0.723059  -2.029866  
0.0  101.685394  0.0  0.790528  22.733157  -98.096756  14.331495  -27.075855  8.292039  5.672789  8.522871  50.958956  0.11623  3.521817  -6.930997  -17.64093  4.088872  -42.120501  5.086737  8.005327  56.763699  9.005798  3.680296  4.215899  -2.744606  0.649935  2.643877  -7.422989  2.071085  7.14448  -7.422989  2.071085  7.14448  -2.653323  21.352877  10.575974  163.216943  34.510322  -159.738371  -43.181068  -14.728247  102.386225  80.861496  -4.994036  -0.752367  13.064769  -6.940271  18.119551  27.084311  71.328983  -27.714296  -22.260986  -1.540111  -86.845295  66.180589  2.168909  21.002428  -4.44385  -1.063083  -2.834843  -3.337808  -0.776768  -2.133936  
0.0  101.685394  0.0  0.736249  22.586321  -98.102579  14.380278  -26.952049  8.341005  5.580564  8.560888  50.698695  0.14038  3.617548  -6.907337  -17.586571  4.093295  -42.126524  4.893232  7.97926  56.61906  9.279401  3.579286  4.228776  -2.702911  0.666121  2.645752  -7.30739  2.110948  7.149315  -7.30739  2.110948  7.149314  -3.159945  21.276681  10.432736  164.930453  36.145498  -158.204047  -42.51192  -15.672776  101.930795  81.554956  -4.531334  -2.44632  12.65256  -6.987508  17.869448  29.730343  70.890546  -25.280668  -22.031577  -1.636318  -87.33734  65.846525  2.106086  21.268602  -4.849674  -1.179756  -3.029929  -3.643082  -0.860863  -2.2819  
0.0  101.685394  0.0  0.76292  22.602034  -98.021574  14.033234  -26.629656  8.394321  5.623724  8.651503  50.529469  0.189144  3.612325  -7.018196  -17.61188  4.124121  -42.17866  4.8315  7.960702  56.52188  9.401827  3.454666  4.197182  -2.68161  0.685672  2.640625  -7.247383  2.161406  7.134002  -7.247383  2.161406  7.134002  -3.638994  21.278294  10.255408  166.657932  37.963253  -156.416869  -41.798517  -16.79033  101.338201  82.272618  -4.060416  -4.291468  12.303518  -6.961374  17.634219  32.243724  70.364363  -22.881457  -21.834372  -1.679704  -87.844892  65.42518  2.033658  21.696388  -5.061582  -1.341643  -3.203819  -3.80317  -0.97981  -2.414064  
